<mxfile host="app.diagrams.net" modified="2024-01-04T13:16:59.799Z" agent="Mozilla/5.0 (Windows NT 10.0; Win64; x64) AppleWebKit/537.36 (KHTML, like Gecko) Chrome/120.0.0.0 Safari/537.36" etag="qsZwp67APl9NiktuxJjp" version="22.1.16" type="device">
  <diagram id="T69gMHeCFw0_ZXHo1C8A" name="Sayfa -1">
    <mxGraphModel dx="921" dy="651" grid="1" gridSize="10" guides="1" tooltips="1" connect="1" arrows="1" fold="1" page="0" pageScale="1" pageWidth="827" pageHeight="1169" background="none" math="0" shadow="0">
      <root>
        <mxCell id="0" />
        <mxCell id="1" parent="0" />
        <mxCell id="node0" value="&lt;p style=&quot;margin:0px;margin-top:4px;text-align:center;&quot;&gt;&lt;b&gt;Advisor&lt;/b&gt;&lt;/p&gt;&lt;hr size=&quot;1&quot;&gt;&lt;p style=&quot;margin:0 0 0 4px;line-height:1.6;&quot;&gt; __system: &lt;br&gt; __studentsAdvised: List&lt;br&gt; __requestList: List&lt;br&gt; __requestNumber: Integer&lt;/p&gt;&lt;p style=&quot;margin:0 0 0 4px;line-height:1.6;&quot;&gt; __notification: Notification&lt;/p&gt;&lt;hr size=&quot;1&quot;&gt;&lt;p style=&quot;margin:0 0 0 4px;line-height:1.6;&quot;&gt; __init__(self, ID, name, surname, userName, password): &lt;br&gt; printRequests(self):&lt;br&gt; replyRequests(self):&lt;br&gt; printMenu(self, menuType):&lt;br&gt; login(self, userName, password):&lt;br&gt; getStudentsAdvised(self):&lt;br&gt; getRequestList(self):&lt;br&gt; setNotification(self, notification):&lt;/p&gt;" style="verticalAlign=top;align=left;overflow=fill;fontSize=14;fontFamily=Helvetica;html=1;rounded=0;shadow=0;comic=0;labelBackgroundColor=none;strokeWidth=1;" parent="1" vertex="1">
          <mxGeometry x="-300" y="10" width="372" height="352" as="geometry" />
        </mxCell>
      </root>
    </mxGraphModel>
  </diagram>
</mxfile>
